<svg xmlns:xlink="http://www.w3.org/1999/xlink"   viewBox="0 0 24 24" fill="none" xmlns="http://www.w3.org/2000/svg" width="1"  height="1" ><title>CamperIcon</title><path fill-rule="evenodd" clip-rule="evenodd" d="M13.55 4.25H2.94c-.503 0-.832.318-1.012.596-.177.27-.288.607-.367.936-.159.669-.236 1.559-.275 2.506-.053 1.303-.034 2.828-.018 4.207.008.626.015 1.221.015 1.752 0 .89.147 1.606.452 2.162a2.414 2.414 0 0 0 1.457 1.184 2.57 2.57 0 0 0 5.12.123h7.042a2.571 2.571 0 0 0 5.11-.011c.465-.053 1.006-.288 1.447-.785.513-.579.84-1.452.84-2.673 0-.773-.159-1.445-.415-2.043-.358-.834-.9-1.502-1.402-2.07l-.345-.384H22.5a.75.75 0 0 0 .75-.75h-.75.75v-.063c0-.036-.003-.086-.006-.148a7.377 7.377 0 0 0-.409-2.049c-.21-.568-.542-1.188-1.078-1.672-.552-.498-1.284-.818-2.21-.818H13.55Zm6.624 11.966h.09c.076 0 .306-.045.524-.291.21-.237.462-.723.462-1.678a3.67 3.67 0 0 0-.133-.997H16a.75.75 0 0 1-.75-.75V9a.75.75 0 0 1 .75-.75H21.679a5.283 5.283 0 0 0-.252-.99c-.16-.432-.38-.812-.676-1.078-.28-.252-.655-.432-1.206-.432H3.14c-.035.079-.077.201-.12.38-.123.52-.197 1.289-.235 2.219-.052 1.264-.034 2.714-.017 4.072.008.638.015 1.257.015 1.826 0 .741.125 1.181.267 1.44.13.237.294.362.491.44a2.57 2.57 0 0 1 4.482.09h7.62a2.57 2.57 0 0 1 4.532 0ZM16.75 9.75h1.865c.276.363.592.711.887 1.036.106.117.21.231.307.342.185.208.359.414.518.622H16.75v-2ZM5.756 18.502a1.07 1.07 0 1 0 0-2.142 1.07 1.07 0 0 0 0 2.142Zm12.151 0a1.07 1.07 0 1 0 0-2.142 1.07 1.07 0 0 0 0 2.142Z" fill="#1A2030"></path></svg>