<svg xmlns:xlink="http://www.w3.org/1999/xlink"   viewBox="0 0 24 24" fill="none" xmlns="http://www.w3.org/2000/svg" width="1"  height="1" ><title>HatchbackIcon</title><path fill-rule="evenodd" clip-rule="evenodd" d="M7.809 7.53c-2.123 0-3.837 1.014-5.004 2.414C1.648 11.333 1 13.132 1 14.805c0 .793.158 1.447.493 1.956.342.52.82.814 1.309.972.264.085.536.131.798.156A2.56 2.56 0 0 0 5.71 19a2.56 2.56 0 0 0 2.115-1.114h7.888A2.56 2.56 0 0 0 17.83 19a2.56 2.56 0 0 0 2.114-1.114h.53c.466 0 1.103-.175 1.629-.67.546-.514.904-1.307.904-2.41 0-.732-.358-1.316-.823-1.75-.457-.426-1.053-.744-1.654-.985-1.097-.44-2.368-.681-3.295-.783L13.45 7.733l-.217-.203h-.297v.75-.75H7.808Zm12.581 9.006a2.575 2.575 0 0 0 .002-.15h.081a.942.942 0 0 0 .6-.263c.197-.185.433-.557.433-1.318 0-.2-.087-.412-.346-.653-.268-.25-.675-.484-1.189-.69-1.024-.41-2.283-.632-3.13-.706l-.258-.023-.19-.178-3.755-3.525H7.81c-1.606 0-2.921.758-3.852 1.874-.94 1.128-1.457 2.59-1.457 3.901 0 .605.121.942.246 1.132a.86.86 0 0 0 .408.328 2.563 2.563 0 0 1 5.12.171v-.05h6.992v.05a2.563 2.563 0 1 1 5.124.1Zm-5.107.198a2.525 2.525 0 0 1-.015-.198l.015.198ZM5.71 17.5a1.063 1.063 0 1 0 0-2.126 1.063 1.063 0 0 0 0 2.126Zm12.118 0a1.063 1.063 0 1 0 0-2.126 1.063 1.063 0 0 0 0 2.126Z" fill="#1A2030"></path></svg>