<svg xmlns:xlink="http://www.w3.org/1999/xlink"   viewBox="0 0 24 24" fill="none" xmlns="http://www.w3.org/2000/svg" width="1"  height="1" ><title>TractorIcon</title><path fill-rule="evenodd" clip-rule="evenodd" d="M4 4.25a.75.75 0 0 0-.75.75v2a.75.75 0 0 0 .126.416l.409.613a.642.642 0 0 1-1.019.78l-.702-.803-1.128.988.702.802a2.143 2.143 0 0 0 3.395-2.6l-.283-.423V5.75h1.648l.711 3.199H7a1.75 1.75 0 0 0-1.75 1.749V12.095a4 4 0 1 0 1.5-.896V10.698a.25.25 0 0 1 .25-.25h.22a1.75 1.75 0 0 0 1.7-1.34l.631-2.617a.25.25 0 0 1 .243-.191h3.944a.25.25 0 0 1 .245.2l.706 3.458a1.75 1.75 0 0 0 1.337 1.358l3.81.842a.255.255 0 0 1 .037.012l1.816.72a.25.25 0 0 1 .158.233v1.363a2.569 2.569 0 0 1 .875 2.042c.382-.32.625-.802.625-1.34v-2.065a1.75 1.75 0 0 0-1.105-1.627l-1.816-.72a1.756 1.756 0 0 0-.267-.082l-3.81-.843a.25.25 0 0 1-.19-.194L15.451 6.2a1.75 1.75 0 0 0-1.714-1.4H9.793a1.75 1.75 0 0 0-1.7 1.34l-.038.153-.323-1.455A.75.75 0 0 0 7 4.25H4Zm7.976 11.188a3.975 3.975 0 0 1-.476 1.5h6.126a2.575 2.575 0 1 0 .143-1.5h-5.793ZM10.5 15a2.5 2.5 0 1 1-5 0 2.5 2.5 0 0 1 5 0Zm10.723 1.422a1.074 1.074 0 1 1-2.149 0 1.074 1.074 0 0 1 2.15 0Z" fill="#1A2030"></path></svg>