<svg xmlns:xlink="http://www.w3.org/1999/xlink"   viewBox="0 0 24 24" fill="none" xmlns="http://www.w3.org/2000/svg" width="1"  height="1" ><title>TruckIcon</title><path fill-rule="evenodd" clip-rule="evenodd" d="M1 7.47a2.75 2.75 0 0 1 2.75-2.75h11.868c1.281 0 2.358.876 2.663 2.061.241-.124.515-.194.804-.194h.335c.58 0 1.131.288 1.453.786.505.779 1.597 2.523 2.058 3.743.075.2.103.4.105.58.004.438.02.77.037 1.076l.018.383c.017.42.016.817-.066 1.306-.17 1.02-.514 1.757-.98 2.249-.47.499-1.036.711-1.545.711h-1.415c-.388 0-.746-.126-1.036-.339a2.334 2.334 0 0 1-4.508.339H7.694a2.335 2.335 0 0 1-4.435-.044A2.75 2.75 0 0 1 1 14.671V7.47Zm15.868 0v7.151a2.335 2.335 0 0 0-3.327 1.3H7.694a2.335 2.335 0 0 0-4.391-.082A1.25 1.25 0 0 1 2.5 14.67V7.47c0-.69.56-1.25 1.25-1.25h11.868c.69 0 1.25.56 1.25 1.25Zm-10.55 9.2a.834.834 0 1 1-1.668 0 .834.834 0 0 1 1.667 0Zm10.267 0a.834.834 0 1 1-1.667 0 .834.834 0 0 1 1.667 0Zm2.25-8.336c0-.136.11-.247.25-.247h.335c.085 0 .155.04.194.1.52.804 1.519 2.414 1.914 3.46a.193.193 0 0 1 .008.062c.004.472.024.859.04 1.174l.017.333c.014.368.01.65-.047.998-.137.822-.388 1.252-.59 1.466-.197.207-.37.241-.456.241h-1.415a.248.248 0 0 1-.25-.248v-7.34Z" fill="#1A2030"></path></svg>