<svg xmlns:xlink="http://www.w3.org/1999/xlink"   viewBox="0 0 24 24" fill="none" xmlns="http://www.w3.org/2000/svg" width="1"  height="1" ><title>VanIcon</title><path fill-rule="evenodd" clip-rule="evenodd" d="M2.5 6.96c0-.69.56-1.25 1.25-1.25h10.903c.442 0 .85.233 1.075.612l2.472 4.17.197.33.383.034c.149.013.287.023.419.033.303.023.567.043.83.085.36.057.617.144.813.28.34.234.754.805.754 2.6 0 .765-.238 1.14-.436 1.326a.949.949 0 0 1-.605.264h-.276a2.575 2.575 0 0 0-4.76 0H8.11a2.575 2.575 0 0 0-4.738-.051 1.677 1.677 0 0 1-.104-.03c-.236-.076-.401-.191-.52-.37-.125-.192-.247-.531-.247-1.14V6.96Zm.696 9.93a3.348 3.348 0 0 1-.388-.099c-.492-.158-.97-.452-1.314-.975C1.158 15.306 1 14.65 1 13.854V6.959A2.75 2.75 0 0 1 3.75 4.21h10.903c.971 0 1.87.512 2.366 1.347l2.273 3.835c.316.023.66.05.974.1.466.075.971.212 1.427.526.962.663 1.403 1.885 1.403 3.836 0 1.107-.36 1.903-.908 2.418a2.442 2.442 0 0 1-1.633.672h-.133a2.575 2.575 0 0 1-5.046 0H8.251a2.575 2.575 0 0 1-5.055-.054Zm14.703.613a1.075 1.075 0 1 0 0-2.15 1.075 1.075 0 0 0 0 2.15Zm-12.17 0a1.074 1.074 0 1 0 0-2.15 1.074 1.074 0 0 0 0 2.15Z" fill="#1A2030"></path></svg>